<svg width="32" height="77" viewBox="0 0 32 77" fill="none" xmlns="http://www.w3.org/2000/svg">
<ellipse cx="2.20726" cy="3.66628" rx="2.20726" ry="3.66628" transform="matrix(0.967461 -0.25302 0.400315 0.916377 0 57.5382)" fill="#0B0F08"/>
<ellipse cx="2.7274" cy="3.67099" rx="2.7274" ry="3.67099" transform="matrix(0.989067 0.147469 -0.241665 0.97036 19.5825 54.4529)" fill="#0B0F08"/>
<path d="M10.9855 0.589718L14.1078 0.500244L16.7674 0.589718L19.8896 1.6634L22.6649 3.81077L23.8213 5.15287L24.1682 6.85287V10.2529V14.6371L23.59 22.5108L22.7806 30.4739L22.318 37.4529L21.5085 44.8792L20.9304 48.0108L19.4271 51.0529L18.0394 52.395L15.8423 53.0213H13.2983H11.5637L9.48226 52.395L7.7477 50.7844L6.70696 48.2792L5.8975 44.1634L4.74113 32.0844L3.70039 21.7055L3.35348 14.995L2.89093 10.7002V8.10551C2.89093 7.67603 3.58475 6.01779 3.93167 5.24235L5.55059 3.18445L8.09461 1.48445L10.9855 0.589718Z" fill="#0705F6" stroke="black"/>
<ellipse cx="14.2234" cy="69.3949" rx="10.7543" ry="7.60526" fill="#0705F6"/>
<ellipse cx="2.46593" cy="3.27762" rx="2.46593" ry="3.27762" transform="matrix(0.993053 -0.117671 0.19416 0.98097 9.01971 54.4529)" fill="#0B0F08"/>
<ellipse cx="2.061" cy="3.43454" rx="2.061" ry="3.43454" transform="matrix(0.825001 0.565132 -0.752959 0.658067 28.5993 58.8768)" fill="#0B0F08"/>
</svg>
